<svg width="304" height="65" viewBox="0 0 304 65" fill="none" xmlns="http://www.w3.org/2000/svg">
<path d="M75.4994 33.5V15.3H90.8134V19.07H79.7894V29.73H91.0734V33.5H75.4994ZM77.7874 26.038V22.45H89.6434V26.038H77.7874ZM110.89 33.5L104.104 25.31L95.5762 15.3H101.14L107.692 23.23L116.454 33.5H110.89ZM95.4462 33.5L103.61 23.594L107.068 25.648L100.828 33.5H95.4462ZM108.264 25.05L104.858 23.074L110.786 15.3H116.194L108.264 25.05ZM121.558 33.5V15.3H131.75C132.946 15.3 134.021 15.56 134.974 16.08C135.945 16.6 136.707 17.3107 137.262 18.212C137.834 19.1133 138.12 20.1273 138.12 21.254C138.12 22.4673 137.817 23.5593 137.21 24.53C136.603 25.4833 135.797 26.2373 134.792 26.792C133.787 27.3293 132.643 27.598 131.36 27.598H125.978V33.5H121.558ZM125.9 23.724H130.606C131.143 23.724 131.629 23.62 132.062 23.412C132.495 23.204 132.842 22.918 133.102 22.554C133.362 22.19 133.492 21.7827 133.492 21.332C133.492 20.8813 133.362 20.5 133.102 20.188C132.842 19.876 132.495 19.6333 132.062 19.46C131.629 19.2867 131.143 19.2 130.606 19.2H125.9V23.724ZM144.74 33.5V15.3H154.646C156.015 15.3 157.194 15.5427 158.182 16.028C159.187 16.5133 159.958 17.1893 160.496 18.056C161.05 18.9227 161.328 19.9367 161.328 21.098C161.328 22.2767 161.033 23.3253 160.444 24.244C159.854 25.1627 159.048 25.8907 158.026 26.428C157.02 26.948 155.894 27.208 154.646 27.208H148.952V33.5H144.74ZM157.194 33.5L151.448 25.284L156.05 24.634L162.316 33.5H157.194ZM148.952 23.828H154.178C154.663 23.828 155.114 23.724 155.53 23.516C155.946 23.308 156.275 23.0133 156.518 22.632C156.76 22.2507 156.882 21.826 156.882 21.358C156.882 20.8727 156.752 20.4567 156.492 20.11C156.249 19.746 155.911 19.4687 155.478 19.278C155.044 19.0873 154.559 18.992 154.022 18.992H148.952V23.828ZM168.911 33.5V15.3H184.225V19.07H173.201V29.73H184.485V33.5H168.911ZM171.199 26.038V22.45H183.055V26.038H171.199ZM199.076 33.76C197.672 33.76 196.39 33.63 195.228 33.37C194.084 33.0927 193.044 32.7113 192.108 32.226C191.19 31.7407 190.349 31.1773 189.586 30.536L191.822 27.13C193.07 28.1873 194.336 28.9413 195.618 29.392C196.901 29.8253 198.149 30.042 199.362 30.042C199.9 30.042 200.437 29.99 200.974 29.886C201.529 29.7647 201.988 29.574 202.352 29.314C202.734 29.0367 202.924 28.6553 202.924 28.17C202.924 27.8927 202.838 27.6587 202.664 27.468C202.491 27.26 202.248 27.0953 201.936 26.974C201.624 26.8353 201.252 26.7227 200.818 26.636C200.402 26.5493 199.96 26.48 199.492 26.428C199.024 26.3587 198.539 26.2893 198.036 26.22C196.858 26.0813 195.818 25.8647 194.916 25.57C194.015 25.2753 193.235 24.9027 192.576 24.452C191.935 24.0013 191.441 23.464 191.094 22.84C190.765 22.1987 190.6 21.4707 190.6 20.656C190.6 19.7547 190.808 18.9487 191.224 18.238C191.658 17.51 192.264 16.9033 193.044 16.418C193.824 15.9153 194.717 15.534 195.722 15.274C196.745 15.014 197.837 14.884 198.998 14.884C200.246 14.884 201.364 15.0053 202.352 15.248C203.358 15.4907 204.242 15.82 205.004 16.236C205.767 16.652 206.391 17.12 206.876 17.64L204.588 20.604C204.103 20.1707 203.548 19.8153 202.924 19.538C202.3 19.2433 201.642 19.018 200.948 18.862C200.255 18.706 199.579 18.628 198.92 18.628C198.21 18.628 197.577 18.6973 197.022 18.836C196.485 18.9573 196.052 19.1393 195.722 19.382C195.393 19.6247 195.228 19.9367 195.228 20.318C195.228 20.6647 195.358 20.9507 195.618 21.176C195.896 21.4013 196.251 21.5833 196.684 21.722C197.135 21.8607 197.62 21.9733 198.14 22.06C198.66 22.1467 199.18 22.216 199.7 22.268C200.706 22.4067 201.676 22.58 202.612 22.788C203.566 22.996 204.415 23.2907 205.16 23.672C205.906 24.0533 206.486 24.5647 206.902 25.206C207.336 25.8473 207.552 26.6793 207.552 27.702C207.552 28.9847 207.18 30.0767 206.434 30.978C205.706 31.8793 204.701 32.5727 203.418 33.058C202.153 33.526 200.706 33.76 199.076 33.76ZM221.445 33.76C220.041 33.76 218.759 33.63 217.597 33.37C216.453 33.0927 215.413 32.7113 214.477 32.226C213.559 31.7407 212.718 31.1773 211.955 30.536L214.191 27.13C215.439 28.1873 216.705 28.9413 217.987 29.392C219.27 29.8253 220.518 30.042 221.731 30.042C222.269 30.042 222.806 29.99 223.343 29.886C223.898 29.7647 224.357 29.574 224.721 29.314C225.103 29.0367 225.293 28.6553 225.293 28.17C225.293 27.8927 225.207 27.6587 225.033 27.468C224.86 27.26 224.617 27.0953 224.305 26.974C223.993 26.8353 223.621 26.7227 223.187 26.636C222.771 26.5493 222.329 26.48 221.861 26.428C221.393 26.3587 220.908 26.2893 220.405 26.22C219.227 26.0813 218.187 25.8647 217.285 25.57C216.384 25.2753 215.604 24.9027 214.945 24.452C214.304 24.0013 213.81 23.464 213.463 22.84C213.134 22.1987 212.969 21.4707 212.969 20.656C212.969 19.7547 213.177 18.9487 213.593 18.238C214.027 17.51 214.633 16.9033 215.413 16.418C216.193 15.9153 217.086 15.534 218.091 15.274C219.114 15.014 220.206 14.884 221.367 14.884C222.615 14.884 223.733 15.0053 224.721 15.248C225.727 15.4907 226.611 15.82 227.373 16.236C228.136 16.652 228.76 17.12 229.245 17.64L226.957 20.604C226.472 20.1707 225.917 19.8153 225.293 19.538C224.669 19.2433 224.011 19.018 223.317 18.862C222.624 18.706 221.948 18.628 221.289 18.628C220.579 18.628 219.946 18.6973 219.391 18.836C218.854 18.9573 218.421 19.1393 218.091 19.382C217.762 19.6247 217.597 19.9367 217.597 20.318C217.597 20.6647 217.727 20.9507 217.987 21.176C218.265 21.4013 218.62 21.5833 219.053 21.722C219.504 21.8607 219.989 21.9733 220.509 22.06C221.029 22.1467 221.549 22.216 222.069 22.268C223.075 22.4067 224.045 22.58 224.981 22.788C225.935 22.996 226.784 23.2907 227.529 23.672C228.275 24.0533 228.855 24.5647 229.271 25.206C229.705 25.8473 229.921 26.6793 229.921 27.702C229.921 28.9847 229.549 30.0767 228.803 30.978C228.075 31.8793 227.07 32.5727 225.787 33.058C224.522 33.526 223.075 33.76 221.445 33.76ZM100.692 58.5V44.5H108.172C109.319 44.5 110.292 44.64 111.092 44.92C111.892 45.2 112.492 45.5933 112.892 46.1C113.292 46.6067 113.492 47.22 113.492 47.94C113.492 48.7267 113.272 49.3933 112.832 49.94C112.392 50.4867 111.726 50.8667 110.832 51.08L110.892 50.7C111.492 50.8333 112.046 51.0533 112.552 51.36C113.072 51.6533 113.479 52.0467 113.772 52.54C114.079 53.02 114.232 53.5933 114.232 54.26C114.232 55.0733 114.072 55.7533 113.752 56.3C113.432 56.8333 112.992 57.2667 112.432 57.6C111.886 57.92 111.279 58.1533 110.612 58.3C109.946 58.4333 109.279 58.5 108.612 58.5H100.692ZM103.892 55.66H108.632C109.072 55.66 109.459 55.6067 109.792 55.5C110.139 55.38 110.406 55.2067 110.592 54.98C110.792 54.74 110.892 54.4467 110.892 54.1C110.892 53.7267 110.772 53.4333 110.532 53.22C110.292 52.9933 109.986 52.8333 109.612 52.74C109.252 52.6333 108.892 52.58 108.532 52.58H103.892V55.66ZM103.892 50.04H108.072C108.486 50.04 108.846 49.9867 109.152 49.88C109.472 49.76 109.719 49.6 109.892 49.4C110.066 49.2 110.152 48.9467 110.152 48.64C110.152 48.1867 109.946 47.86 109.532 47.66C109.119 47.4467 108.592 47.34 107.952 47.34H103.892V50.04ZM119.228 58.5V44.5H131.008V47.4H122.528V55.6H131.208V58.5H119.228ZM120.988 52.76V50H130.108V52.76H120.988ZM134.551 58.5L141.111 44.5H144.231L150.751 58.5H147.251L143.531 50.54C143.411 50.2467 143.285 49.96 143.151 49.68C143.031 49.4 142.918 49.1267 142.811 48.86C142.718 48.5933 142.625 48.3267 142.531 48.06C142.438 47.78 142.351 47.5067 142.271 47.24L142.991 47.22C142.898 47.5133 142.805 47.8 142.711 48.08C142.618 48.36 142.511 48.6333 142.391 48.9C142.285 49.1667 142.171 49.44 142.051 49.72C141.931 49.9867 141.805 50.2667 141.671 50.56L137.971 58.5H134.551ZM137.611 55.96L138.711 53.4H146.551L147.171 55.96H137.611ZM161.147 58.62C159.747 58.62 158.52 58.3467 157.467 57.8C156.427 57.24 155.613 56.4733 155.027 55.5C154.44 54.5267 154.147 53.4133 154.147 52.16V44.5H157.587V52.06C157.587 52.7533 157.74 53.3667 158.047 53.9C158.353 54.4333 158.773 54.8533 159.307 55.16C159.853 55.4533 160.467 55.6 161.147 55.6C161.853 55.6 162.48 55.4533 163.027 55.16C163.587 54.8533 164.027 54.4333 164.347 53.9C164.667 53.3667 164.827 52.7533 164.827 52.06V44.5H168.147V52.16C168.147 53.4133 167.853 54.5267 167.267 55.5C166.68 56.4733 165.86 57.24 164.807 57.8C163.753 58.3467 162.533 58.62 161.147 58.62ZM177.734 58.5V47.5H172.574V44.5H186.414V47.5H181.134V58.5H177.734ZM195.702 58.5V52.04L196.022 53.42L189.022 44.5H193.182L198.322 51.32L196.582 51.3L201.502 44.5H205.402L198.962 53.1L199.122 51.88V58.5H195.702Z" fill="black"/>
<g clip-path="url(#clip0_15_238)">
<path d="M233.359 23.582L233.267 21.6233C232.928 14.6795 232.709 10.0904 235.374 7.42462C237.559 5.23966 240.975 5.24673 243.153 7.42462C244.383 8.65499 244.991 10.4086 244.864 12.0774C246.532 11.9501 248.286 12.5582 249.516 13.7886C251.694 15.9665 251.701 19.3818 249.516 21.5668C246.851 24.2325 242.262 24.0133 235.318 23.6739L233.359 23.582Z" fill="#7B1F1F"/>
</g>
<defs>
<clipPath id="clip0_15_238">
<rect width="24" height="24" fill="white" transform="translate(239.971) rotate(45)"/>
</clipPath>
</defs>
</svg>
